# xmcd
#
# Track frame offsets:
#	150
#	28777
#	38994
#	55557
#	72267
#	96672
#	109802
#	113493
#	129450
#	147560
#	164612
#	184241
#	196164
#	224533
#	235921
#	247474
#	270026
#	285966
#	306856
#
# Disc length: 4427 seconds
#
# Revision: 1
# Processed by: cddbd v1.5.2PL0 Copyright (c) Steve Scherf et al.
# Submitted via: audiograbber 1.83.01
#
DISCID=1f114913
DTITLE=Robert Plant - Sixty Six to Timbuktu
DYEAR=2003
DGENRE=Blues
TTITLE0=Life begin again
TTITLE1=Philadelphia baby
TTITLE2=Red for danger
TTITLE3=Let's have a party
TTITLE4=Hey Jayne
TTITLE5=Louie Louie
TTITLE6=Naked if I want to
TTITLE7=21 Years
TTITLE8=If it's really got to be this way
TTITLE9=Rude world
TTITLE10=Little hands
TTITLE11=Let the boogie woogie roll
TTITLE12=Win my train fare home
TTITLE13=You'd better run
TTITLE14=Our song
TTITLE15=Hey Joe
TTITLE16=For what it's worth
TTITLE17=Operator
TTITLE18=Road to the sun
EXTD=
EXTT0=
EXTT1=
EXTT2=
EXTT3=
EXTT4=
EXTT5=
EXTT6=
EXTT7=
EXTT8=
EXTT9=
EXTT10=
EXTT11=
EXTT12=
EXTT13=
EXTT14=
EXTT15=
EXTT16=
EXTT17=
EXTT18=
PLAYORDER=
